<svg xmlns="http://www.w3.org/2000/svg" width="32" height="32" xml:space="preserve"><g fill="#FFF"><g opacity=".66"><path d="M20.665 14.869H13.25c0-7 7.902-14.825 17.902-14.825v7.414c-6.001 0-10.487 3.411-10.487 7.411zM3.151 31.956v-7.414c4.894 0 10.098-4.673 10.098-9.673h7.416c0 9-7.376 17.087-17.514 17.087z"/></g><path d="M13.517 14.118c.099.429-.026.751.034.751h6.929s.008-.254.072-.639c-.021-.317.23-.31.23-.633 0-6.415 4.37-11.591 10.37-13.436V.044c-9.001 0-16.896 5.958-17.635 14.074zM13.609 17.374c0 6.618-4.515 12.744-10.458 14.412v.171c9.089 0 17.328-8.087 17.328-17.087h-7.114c.087 1.999.244 1.842.244 2.504z"/><path d="M13.551 15.364c-.06 0-.141-.88-.24-1.31-.04.432.054 1.31.054 1.31h.186z"/></g></svg>